<svg xmlns="http://www.w3.org/2000/svg" width="100" height="84.976" viewBox="0 0 100 84.976"><defs><style>.a{fill:#898989;}.b{fill:#f8d32c;}</style></defs><g transform="translate(-520.986 -292.652)"><path class="a" d="M655.69,421.805c8.04.287,14.451,4.838,16.055,13.256a15.6,15.6,0,0,1-3.284,13.157,16.275,16.275,0,0,1-22.019,2.972,15.282,15.282,0,0,1-6.669-12.077c-.045-.978.305-1.215,1.224-1.19,2.212.059,4.427.039,6.641.007.723-.01.979.129,1.167.964.873,3.886,2.94,5.914,6.622,6.179a6.962,6.962,0,0,0,7.005-9.514,7.049,7.049,0,0,0-6.742-4.6Q655.691,426.381,655.69,421.805Z" transform="translate(-84.398 -91.765)"/><path class="b" d="M655.546,364.714q0,4.576,0,9.153a15.99,15.99,0,0,1-15.591-12.584c-1.868-8.987,3.155-17.151,12.02-19.32a15.278,15.278,0,0,1,14.37,3.561,14.984,14.984,0,0,1,5.405,11c.039.928-.221,1.259-1.192,1.228-2.164-.069-4.332-.041-6.5-.011-.8.011-1.172-.057-1.359-1.084a6.879,6.879,0,0,0-6.864-6.057c-3.16-.109-5.818,1.87-6.947,5.349C647.526,360.151,651.491,364.981,655.546,364.714Z" transform="translate(-84.254 -34.674)"/><path class="b" d="M521.067,399.667c-.595-6.92,5.2-14.656,12.535-15.956a17.139,17.139,0,0,1,13.558,2.994c1.643,1.17,1.669,1.489.222,2.935-1.429,1.428-2.863,2.851-4.284,4.287-.44.444-.81.768-1.448.221-4.467-3.824-11.246-1.022-11.716,5.519Z" transform="translate(-0.028 -64.473)"/><path class="b" d="M799.13,438.611a15.717,15.717,0,0,1-12.282,15.865,16.384,16.384,0,0,1-14.03-3.07c-1.418-1.1-1.422-1.349-.112-2.66,1.463-1.463,2.933-2.92,4.39-4.389.437-.441.807-.781,1.448-.231,4.464,3.834,11.254,1.025,11.721-5.514Z" transform="translate(-178.164 -103.706)"/><path class="a" d="M521.039,439.612h8.866a8.039,8.039,0,0,0,3.505,5.9,6.9,6.9,0,0,0,8-.493c.678-.547,1.072-.588,1.674.036,1.57,1.629,3.165,3.235,4.8,4.8.689.657.719,1.159-.014,1.76a15.113,15.113,0,0,1-9.126,3.881,17.8,17.8,0,0,1-7.6-.953,16.008,16.008,0,0,1-9.871-11.668A9.2,9.2,0,0,1,521.039,439.612Z" transform="translate(0 -104.417)"/><path class="a" d="M799.2,399.4h-8.866c-.627-3.51-2.346-6.006-6.071-6.784a6.493,6.493,0,0,0-5.457,1.411c-.724.55-1.1.483-1.676-.107-1.574-1.624-3.163-3.235-4.8-4.793-.723-.687-.6-1.166.07-1.762a16.418,16.418,0,0,1,17.483-2.443C795.88,387.878,799.119,392.625,799.2,399.4Z" transform="translate(-178.232 -64.493)"/><path class="a" d="M707.11,535.3c3.9-.615,7.48,3.8,7.371,7.215a7.409,7.409,0,1,1-14.818.051C699.613,538.728,703.208,534.709,707.11,535.3Z" transform="translate(-126.953 -172.366)"/><path class="b" d="M647.121,292.712c4.188-.6,7.473,4.008,7.374,7.205a7.424,7.424,0,1,1-14.847-.119C639.628,296.462,643.033,292.087,647.121,292.712Z" transform="translate(-84.311 0)"/></g></svg>