<svg width="600" height="600" viewBox="0 0 600 600" fill="none" xmlns="http://www.w3.org/2000/svg">
<g clip-path="url(#clip0_3:39)">
<path d="M302.339 269.831C350.659 271.557 389.19 298.925 398.83 349.546C401.703 363.37 401.42 377.664 398.002 391.363C394.585 405.063 388.121 417.813 379.093 428.665C363.404 447.867 341.013 460.394 316.448 463.711C291.882 467.029 266.974 460.891 246.759 446.537C234.855 438.424 225.024 427.623 218.061 415.008C211.099 402.392 207.2 388.314 206.678 373.912C206.407 368.031 208.511 366.606 214.034 366.756C227.328 367.111 240.64 366.991 253.947 366.798C258.292 366.738 259.83 367.574 260.96 372.595C266.207 395.964 278.63 408.159 300.758 409.753C307.841 410.3 314.946 409.033 321.404 406.073C327.862 403.113 333.461 398.557 337.672 392.833C341.884 387.11 344.57 380.408 345.477 373.359C346.385 366.309 345.483 359.145 342.858 352.54C339.807 344.294 334.267 337.201 327.007 332.245C319.747 327.289 311.126 324.714 302.339 324.879C302.343 306.526 302.343 288.176 302.339 269.831Z" fill="#898989"/>
<path d="M302.339 269.831C302.339 288.176 302.339 306.524 302.339 324.873C280.44 324.829 259.214 317.303 242.173 303.541C225.133 289.779 213.301 270.607 208.637 249.199C197.41 195.156 227.598 146.062 280.877 133.019C295.906 128.972 311.717 128.814 326.824 132.56C341.931 136.306 355.839 143.832 367.24 154.433C377.009 162.545 384.953 172.632 390.551 184.032C396.15 195.432 399.276 207.887 399.725 220.581C399.959 226.161 398.396 228.152 392.561 227.966C379.555 227.551 366.525 227.719 353.496 227.899C348.688 227.966 346.452 227.557 345.328 221.381C344.116 211.303 339.243 202.023 331.636 195.306C324.029 188.59 314.22 184.907 304.076 184.957C285.084 184.302 269.109 196.203 262.324 217.123C254.138 242.392 277.968 271.437 302.339 269.831Z" fill="white"/>
<path d="M0.318426 300.825C-3.25752 259.211 31.5703 212.691 75.6536 204.874C89.7394 202.021 104.266 202.149 118.299 205.25C132.332 208.351 145.562 214.355 157.137 222.878C167.012 229.914 167.168 231.832 158.472 240.528C149.883 249.115 141.265 257.672 132.725 266.307C130.08 268.977 127.857 270.926 124.022 267.636C97.1756 244.641 56.4338 261.491 53.6091 300.825H0.318426Z" fill="white"/>
<path d="M600.88 299.087C601.616 321.104 594.644 342.688 581.166 360.107C567.688 377.527 548.552 389.688 527.065 394.491C512.532 398.023 497.385 398.196 482.775 394.997C468.165 391.798 454.475 385.312 442.744 376.029C434.222 369.415 434.198 367.917 442.071 360.034C450.864 351.236 459.699 342.474 468.455 333.64C471.082 330.989 473.305 328.944 477.158 332.251C503.986 355.307 544.794 338.415 547.601 299.093L600.88 299.087Z" fill="white"/>
<path d="M0.318571 300.831H53.6034C54.2802 307.934 56.5198 314.799 60.1618 320.933C63.8038 327.067 68.7577 332.318 74.6681 336.31C81.9931 340.887 90.5635 343.061 99.1828 342.53C107.802 341.998 116.04 338.787 122.748 333.346C126.823 330.056 129.191 329.81 132.809 333.562C142.245 343.358 151.831 353.016 161.657 362.427C165.798 366.378 165.978 369.396 161.573 373.01C146.434 386.741 127.111 394.963 106.726 396.349C91.2652 397.778 75.6788 395.822 61.0495 390.618C46.0986 384.799 32.8394 375.331 22.4782 363.077C12.1171 350.822 4.98292 336.17 1.72496 320.453C0.0884085 314.049 -0.387953 307.403 0.318571 300.831V300.831Z" fill="#898989"/>
<path d="M600.892 299.099H547.607C543.839 277.992 533.508 262.982 511.12 258.304C505.368 257.161 499.432 257.331 493.754 258.8C488.076 260.269 482.802 262.999 478.324 266.789C473.973 270.096 471.713 269.693 468.251 266.145C458.791 256.379 449.241 246.692 439.403 237.323C435.058 233.192 435.797 230.311 439.824 226.727C454.121 214.52 471.605 206.652 490.219 204.049C508.833 201.447 527.803 204.218 544.897 212.036C580.938 229.812 600.405 258.358 600.892 299.099Z" fill="#898989"/>
<path d="M355.618 467.638C379.057 463.94 400.573 490.49 399.918 511.026C399.958 522.842 395.306 534.19 386.984 542.575C382.863 546.726 377.966 550.025 372.571 552.283C367.176 554.54 361.39 555.713 355.542 555.733C343.733 555.773 332.391 551.118 324.012 542.792C315.632 534.465 310.902 523.148 310.861 511.332C310.561 488.252 332.167 464.084 355.618 467.638Z" fill="#898989"/>
<path d="M251.362 45.361C276.532 41.753 296.275 69.4629 295.68 88.6879C295.682 94.5822 294.518 100.419 292.254 105.86C289.991 111.302 286.672 116.241 282.491 120.393C278.31 124.545 273.348 127.827 267.892 130.051C262.437 132.274 256.595 133.395 250.704 133.347C244.813 133.3 238.991 132.086 233.571 129.776C228.152 127.465 223.244 124.104 219.129 119.885C215.015 115.667 211.776 110.675 209.6 105.197C207.424 99.7201 206.353 93.8659 206.45 87.9724C206.33 67.9115 226.793 41.6026 251.362 45.361Z" fill="white"/>
</g>
<defs>
<clipPath id="clip0_3:39">
<rect width="600" height="600" fill="white"/>
</clipPath>
</defs>
</svg>
