<svg xmlns="http://www.w3.org/2000/svg" width="57.664" height="49" viewBox="0 0 57.664 49"><defs><style>.a{fill:#f4f4f4;}.b{fill:#fff;}</style></defs><g transform="translate(-520.986 -292.652)"><path class="a" d="M648.95,421.805c4.636.165,8.333,2.79,9.258,7.644a8.995,8.995,0,0,1-1.893,7.587,9.385,9.385,0,0,1-12.7,1.714,8.812,8.812,0,0,1-3.846-6.964c-.026-.564.176-.7.706-.686,1.276.034,2.553.023,3.829,0,.417-.006.565.075.673.556.5,2.241,1.7,3.41,3.818,3.563a4.015,4.015,0,0,0,4.039-5.486,4.065,4.065,0,0,0-3.888-2.653Q648.951,424.444,648.95,421.805Z" transform="translate(-98.956 -107.594)"/><path class="b" d="M648.781,354.866q0,2.639,0,5.278a9.326,9.326,0,0,1-2.059-18.4,8.81,8.81,0,0,1,8.286,2.053,8.64,8.64,0,0,1,3.117,6.344c.022.535-.128.726-.687.708-1.248-.04-2.5-.024-3.747-.006-.461.007-.676-.033-.784-.625a3.967,3.967,0,0,0-3.958-3.493,4.07,4.07,0,0,0-.168,8.138Z" transform="translate(-98.787 -40.655)"/><path class="b" d="M521.049,392.777a9.2,9.2,0,0,1,7.228-9.2A9.883,9.883,0,0,1,536.1,385.3c.948.675.962.858.128,1.693s-1.651,1.644-2.471,2.472c-.254.256-.467.443-.835.128-2.576-2.205-6.485-.589-6.756,3.182Z" transform="translate(-0.033 -75.594)"/><path class="b" d="M787.534,438.611a9.063,9.063,0,0,1-7.083,9.148,9.448,9.448,0,0,1-8.09-1.77c-.818-.637-.82-.778-.064-1.534.844-.844,1.691-1.684,2.531-2.531.252-.254.465-.45.835-.133,2.574,2.211,6.49.591,6.759-3.18Z" transform="translate(-208.895 -121.595)"/><path class="a" d="M521.016,439.612h5.113a4.636,4.636,0,0,0,2.021,3.4,3.98,3.98,0,0,0,4.611-.284c.391-.315.618-.339.965.021.905.939,1.825,1.865,2.769,2.766.4.379.415.669-.008,1.015a8.715,8.715,0,0,1-5.262,2.238,10.263,10.263,0,0,1-4.38-.55,9.231,9.231,0,0,1-5.692-6.728A5.3,5.3,0,0,1,521.016,439.612Z" transform="translate(0 -122.428)"/><path class="a" d="M787.614,392.635H782.5c-.361-2.024-1.353-3.463-3.5-3.912a3.744,3.744,0,0,0-3.147.814c-.418.317-.637.279-.967-.062-.907-.937-1.824-1.866-2.769-2.764-.417-.4-.348-.672.04-1.016a9.467,9.467,0,0,1,10.081-1.409A8.851,8.851,0,0,1,787.614,392.635Z" transform="translate(-208.976 -75.618)"/><path class="a" d="M703.957,535.279c2.251-.355,4.313,2.191,4.25,4.161a4.272,4.272,0,1,1-8.545.029C699.634,537.253,701.707,534.936,703.957,535.279Z" transform="translate(-148.851 -202.097)"/><path class="b" d="M643.957,292.687c2.415-.347,4.309,2.311,4.252,4.155a4.281,4.281,0,1,1-8.561-.068C639.636,294.849,641.6,292.326,643.957,292.687Z" transform="translate(-98.854)"/></g></svg>