<svg width="115" height="80" viewBox="0 0 115 80" fill="none" xmlns="http://www.w3.org/2000/svg">
<g id="padrao-color-bx">
<g id="Group 1">
<path id="Vector" d="M41.5022 51.8253C39.9282 53.3793 38.0593 54.6121 36.0024 55.4532C33.9456 56.2943 31.741 56.7273 29.5145 56.7273C27.2881 56.7273 25.0834 56.2943 23.0265 55.4532C20.9696 54.6121 19.1008 53.3793 17.5267 51.8253L3 66.1626C8.24304 71.3372 14.923 74.8612 22.1953 76.2889C29.4676 77.7167 37.0056 76.9841 43.8561 74.1837C50.7065 71.3833 56.5617 66.6409 60.6812 60.5563C64.8008 54.4717 66.9998 47.318 67 40H46.4633C46.4658 42.1964 46.0289 44.3716 45.1775 46.4009C44.3262 48.4302 43.0772 50.2736 41.5022 51.8253V51.8253Z" fill="white"/>
<path id="Vector_2" d="M85.497 30.1663C87.074 31.7185 88.3246 33.5631 89.1768 35.5939C90.0291 37.6248 90.4662 39.8019 90.463 42H111C111 34.6821 108.801 27.5286 104.681 21.4441C100.562 15.3595 94.7067 10.6171 87.8564 7.81665C81.006 5.01617 73.4681 4.28333 66.1958 5.7108C58.9235 7.13826 52.2433 10.6619 47 15.8362L61.5211 30.1675C64.7005 27.0299 69.0126 25.2672 73.5088 25.2669C78.005 25.2667 82.3172 27.029 85.497 30.1663V30.1663Z" fill="white"/>
</g>
</g>
</svg>
