<svg width="433" height="43" viewBox="0 0 433 43" fill="none" xmlns="http://www.w3.org/2000/svg">
<g clip-path="url(#clip0_13:2)">
<rect width="433" height="42.5" fill="white"/>
<path d="M391.717 27.4564C389.842 29.3305 387.299 30.3833 384.648 30.3833C381.997 30.3833 379.454 29.3305 377.579 27.4564L369.016 36.0194C372.108 39.1111 376.047 41.2165 380.335 42.0696C384.623 42.9226 389.068 42.4849 393.107 40.8118C397.147 39.1387 400.6 36.3054 403.029 32.67C405.458 29.0347 406.755 24.7607 406.755 20.3884H394.645C394.647 21.7013 394.389 23.0016 393.886 24.2146C393.384 25.4276 392.647 26.5292 391.717 27.4564Z" fill="#F8D32C"/>
<path d="M417.222 15.0364C418.152 15.9638 418.889 17.0658 419.392 18.2791C419.894 19.4924 420.152 20.7932 420.15 22.1064H432.26C432.26 17.7343 430.964 13.4603 428.535 9.82495C426.106 6.18959 422.653 3.35614 418.614 1.68292C414.575 0.00969267 410.13 -0.428205 405.842 0.424678C401.554 1.27756 397.615 3.3829 394.523 6.47442L403.085 15.0364C404.96 13.1626 407.503 12.11 410.153 12.11C412.804 12.11 415.347 13.1626 417.222 15.0364V15.0364Z" fill="#F79434"/>
<path d="M335.627 34.3344C338.169 33.5813 340.906 33.8683 343.236 35.1324C345.566 36.3964 347.299 38.534 348.054 41.0754L359.664 37.6314C358.421 33.4395 355.963 29.7103 352.6 26.9156C349.238 24.1208 345.122 22.3859 340.773 21.9303C336.425 21.4748 332.039 22.319 328.17 24.3562C324.302 26.3934 321.124 29.5321 319.039 33.3754L329.683 39.1494C330.308 37.9949 331.155 36.9752 332.175 36.1489C333.195 35.3226 334.368 34.7059 335.627 34.3344V34.3344Z" fill="#F8D32C"/>
<path d="M363.64 11.0565C362.487 10.4286 361.469 9.57893 360.645 8.55646C359.822 7.53398 359.208 6.35881 358.84 5.09845L347.221 8.51147C348.453 12.7064 350.902 16.4417 354.257 19.2451C357.612 22.0484 361.723 23.7939 366.07 24.2608C370.417 24.7277 374.805 23.895 378.679 21.8681C382.553 19.8412 385.739 16.711 387.834 12.8735L377.206 7.07343C375.935 9.40007 373.791 11.1267 371.248 11.8736C368.704 12.6205 365.967 12.3266 363.64 11.0565V11.0565Z" fill="#F79434"/>
<path d="M286.843 27.4564C284.968 29.3305 282.425 30.3833 279.774 30.3833C277.123 30.3833 274.58 29.3305 272.705 27.4564L264.142 36.0194C267.233 39.1116 271.173 41.2175 275.461 42.0708C279.749 42.9241 284.194 42.4865 288.234 40.8133C292.274 39.1401 295.726 36.3065 298.156 32.6709C300.585 29.0353 301.881 24.7609 301.881 20.3884H289.771C289.773 21.7013 289.515 23.0016 289.012 24.2146C288.51 25.4276 287.773 26.5292 286.843 27.4564V27.4564Z" fill="#F8D32C"/>
<path d="M310.574 15.0364C311.504 15.9638 312.241 17.0658 312.744 18.2792C313.246 19.4925 313.504 20.7932 313.502 22.1064H325.612C325.612 17.7343 324.316 13.4603 321.887 9.82495C319.458 6.18959 316.005 3.35614 311.966 1.68292C307.927 0.00969267 303.482 -0.428205 299.194 0.424678C294.906 1.27756 290.967 3.3829 287.875 6.47442L296.437 15.0364C298.312 13.1626 300.855 12.11 303.505 12.11C306.156 12.11 308.699 13.1626 310.574 15.0364V15.0364Z" fill="#F79434"/>
<path d="M228.978 34.3344C231.52 33.5813 234.257 33.8683 236.587 35.1324C238.917 36.3964 240.65 38.534 241.405 41.0754L253.015 37.6314C251.772 33.4395 249.314 29.7103 245.951 26.9156C242.589 24.1208 238.473 22.3859 234.124 21.9303C229.776 21.4748 225.39 22.319 221.521 24.3562C217.653 26.3934 214.475 29.5321 212.39 33.3754L223.034 39.1494C223.659 37.9948 224.506 36.9752 225.526 36.1488C226.546 35.3225 227.719 34.7059 228.978 34.3344V34.3344Z" fill="#F8D32C"/>
<path d="M256.991 11.0565C255.838 10.4285 254.82 9.57887 253.996 8.5564C253.173 7.53393 252.559 6.35879 252.191 5.09845L240.573 8.51147C241.805 12.7064 244.254 16.4417 247.609 19.2451C250.964 22.0484 255.075 23.7939 259.422 24.2608C263.769 24.7277 268.157 23.895 272.031 21.8681C275.905 19.8412 279.091 16.711 281.186 12.8735L270.558 7.07343C269.287 9.40034 267.143 11.1271 264.599 11.874C262.055 12.6209 259.318 12.3269 256.991 11.0565V11.0565Z" fill="#F79434"/>
<path d="M181.813 26.0355C179.938 27.9093 177.395 28.9618 174.745 28.9618C172.094 28.9618 169.551 27.9093 167.676 26.0355L159.113 34.5984C162.205 37.6903 166.143 39.7959 170.432 40.649C174.72 41.5021 179.165 41.0644 183.204 39.3912C187.244 37.7181 190.696 34.8847 193.125 31.2493C195.555 27.6139 196.851 23.3397 196.851 18.9675H184.741C184.742 20.2804 184.485 21.5806 183.982 22.7936C183.48 24.0065 182.743 25.1082 181.813 26.0355Z" fill="#F8D32C"/>
<path d="M204.832 15.0364C205.762 15.9639 206.499 17.0659 207.002 18.2792C207.504 19.4925 207.762 20.7932 207.76 22.1064H219.869C219.869 17.7343 218.573 13.4603 216.144 9.82495C213.715 6.18959 210.262 3.35614 206.223 1.68292C202.184 0.00969267 197.739 -0.428205 193.451 0.424678C189.163 1.27756 185.224 3.3829 182.132 6.47442L190.694 15.0364C192.569 13.1623 195.112 12.1096 197.763 12.1096C200.414 12.1096 202.957 13.1623 204.832 15.0364V15.0364Z" fill="#F79434"/>
<path d="M123.237 34.3344C125.779 33.5813 128.516 33.8683 130.846 35.1324C133.176 36.3964 134.909 38.534 135.664 41.0754L147.274 37.6314C146.031 33.4395 143.573 29.7103 140.21 26.9156C136.848 24.1208 132.732 22.3859 128.383 21.9303C124.035 21.4748 119.649 22.319 115.78 24.3562C111.911 26.3934 108.734 29.5321 106.649 33.3754L117.293 39.1494C117.918 37.9948 118.764 36.9752 119.785 36.1488C120.805 35.3225 121.978 34.7059 123.237 34.3344V34.3344Z" fill="#F8D32C"/>
<path d="M151.249 11.0565C150.096 10.4285 149.078 9.57887 148.254 8.5564C147.431 7.53393 146.817 6.35879 146.449 5.09845L134.834 8.51447C136.066 12.7094 138.515 16.4447 141.87 19.248C145.225 22.0514 149.336 23.797 153.683 24.2639C158.03 24.7308 162.418 23.8981 166.292 21.8712C170.166 19.8442 173.352 16.714 175.447 12.8765L164.819 7.07642C163.547 9.40362 161.403 11.1303 158.858 11.8767C156.313 12.6231 153.576 12.3281 151.249 11.0565Z" fill="#F79434"/>
<path d="M72.678 27.4564C70.8028 29.3302 68.2604 30.3828 65.6095 30.3828C62.9586 30.3828 60.4161 29.3302 58.541 27.4564L49.978 36.0194C53.0695 39.1112 57.0085 41.2168 61.2967 42.0699C65.5849 42.9231 70.0298 42.4854 74.0693 40.8123C78.1088 39.1391 81.5614 36.3056 83.9905 32.6702C86.4196 29.0348 87.7161 24.7607 87.716 20.3884H75.606C75.6076 21.7013 75.3497 23.0016 74.8472 24.2146C74.3447 25.4276 73.6075 26.5292 72.678 27.4564V27.4564Z" fill="#F8D32C"/>
<path d="M98.183 15.0365C99.1128 15.9639 99.8501 17.0659 100.353 18.2792C100.855 19.4925 101.113 20.7932 101.111 22.1065H113.22C113.219 17.7356 111.922 13.4631 109.493 9.82901C107.065 6.19494 103.613 3.3624 99.5752 1.68942C95.5371 0.0164409 91.0937 -0.421922 86.8065 0.429777C82.5194 1.28148 78.581 3.385 75.489 6.47446L84.051 15.0365C85.926 13.1642 88.4674 12.1126 91.117 12.1126C93.7667 12.1126 96.3081 13.1642 98.183 15.0365V15.0365Z" fill="#F79434"/>
<path d="M16.588 34.3344C19.1297 33.5816 21.8663 33.8688 24.1964 35.1328C26.5264 36.3968 28.2592 38.5342 29.014 41.0754L40.625 37.6314C39.382 33.4395 36.9238 29.7103 33.5612 26.9156C30.1987 24.1208 26.083 22.3859 21.7345 21.9303C17.3859 21.4748 13 22.319 9.13125 24.3562C5.26253 26.3934 2.08482 29.5321 0 33.3754L10.644 39.1494C11.2688 37.9948 12.1155 36.9752 13.1356 36.1488C14.1556 35.3225 15.3289 34.7059 16.588 34.3344V34.3344Z" fill="#F8D32C"/>
<path d="M44.601 11.0565C43.4479 10.4285 42.4302 9.57887 41.6065 8.5564C40.7827 7.53393 40.1691 6.35879 39.801 5.09845L28.178 8.51447C29.4102 12.7094 31.8587 16.4447 35.2138 19.248C38.569 22.0514 42.68 23.797 47.0272 24.2639C51.3743 24.7308 55.7623 23.8981 59.6362 21.8712C63.5102 19.8442 66.696 16.714 68.791 12.8765L58.163 7.07642C56.8912 9.40148 54.7485 11.1267 52.2056 11.8729C49.6627 12.6192 46.9275 12.3255 44.601 11.0565Z" fill="#F79434"/>
</g>
<defs>
<clipPath id="clip0_13:2">
<rect width="433" height="42.5" fill="white"/>
</clipPath>
</defs>
</svg>
