<svg xmlns="http://www.w3.org/2000/svg" width="432.26" height="42.495" viewBox="0 0 432.26 42.495"><defs><style>.a{fill:#8b8b8b;}.b{fill:#f1d442;}</style></defs><g transform="translate(-93.44 -535.276)"><path class="a" d="M1596.688,624.144a10,10,0,0,1-14.138,0l-8.563,8.563a22.107,22.107,0,0,0,37.739-15.631h-12.11A9.966,9.966,0,0,1,1596.688,624.144Z" transform="translate(-1111.531 -61.412)"/><path class="b" d="M1699.027,550.312a9.964,9.964,0,0,1,2.928,7.07h12.11a22.106,22.106,0,0,0-37.737-15.632l8.562,8.562A10,10,0,0,1,1699.027,550.312Z" transform="translate(-1188.365)"/><path class="a" d="M1390.062,635.294a10,10,0,0,1,12.427,6.741l11.61-3.444a22.106,22.106,0,0,0-40.625-4.256l10.644,5.774A9.966,9.966,0,0,1,1390.062,635.294Z" transform="translate(-960.995 -65.684)"/><path class="b" d="M1502.957,561.7a9.965,9.965,0,0,1-4.8-5.958l-11.619,3.413a22.106,22.106,0,0,0,40.613,4.362l-10.628-5.8A10,10,0,0,1,1502.957,561.7Z" transform="translate(-1045.877 -15.368)"/><path class="a" d="M1175.92,624.144a10,10,0,0,1-14.138,0l-8.563,8.563a22.106,22.106,0,0,0,37.739-15.631h-12.11A9.966,9.966,0,0,1,1175.92,624.144Z" transform="translate(-795.637 -61.412)"/><path class="b" d="M1271.136,550.312a9.965,9.965,0,0,1,2.928,7.07h12.11a22.106,22.106,0,0,0-37.737-15.632l8.562,8.562A10,10,0,0,1,1271.136,550.312Z" transform="translate(-867.122)"/><path class="a" d="M962.17,635.294a10,10,0,0,1,12.427,6.741l11.61-3.444a22.106,22.106,0,0,0-40.625-4.256l10.644,5.774A9.965,9.965,0,0,1,962.17,635.294Z" transform="translate(-639.752 -65.684)"/><path class="b" d="M1075.065,561.7a9.966,9.966,0,0,1-4.8-5.958l-11.618,3.413a22.106,22.106,0,0,0,40.613,4.362l-10.628-5.8A10,10,0,0,1,1075.065,561.7Z" transform="translate(-724.634 -15.368)"/><path class="a" d="M754.521,618.445a10,10,0,0,1-14.137,0l-8.563,8.563a22.106,22.106,0,0,0,37.738-15.631H757.449A9.967,9.967,0,0,1,754.521,618.445Z" transform="translate(-479.268 -57.134)"/><path class="b" d="M846.886,550.312a9.966,9.966,0,0,1,2.928,7.07h12.109a22.106,22.106,0,0,0-37.737-15.632l8.562,8.562A10,10,0,0,1,846.886,550.312Z" transform="translate(-548.614)"/><path class="a" d="M537.921,635.294a10,10,0,0,1,12.427,6.741l11.61-3.444a22.106,22.106,0,0,0-40.625-4.256l10.644,5.774A9.965,9.965,0,0,1,537.921,635.294Z" transform="translate(-321.244 -65.684)"/><path class="b" d="M650.815,561.7a9.966,9.966,0,0,1-4.8-5.958L634.4,559.158a22.106,22.106,0,0,0,40.613,4.362l-10.628-5.8A10,10,0,0,1,650.815,561.7Z" transform="translate(-406.126 -15.368)"/><path class="a" d="M316.655,624.144a10,10,0,0,1-14.137,0l-8.563,8.563a22.106,22.106,0,0,0,37.738-15.631H319.583A9.966,9.966,0,0,1,316.655,624.144Z" transform="translate(-150.537 -61.412)"/><path class="b" d="M418.994,550.312a9.966,9.966,0,0,1,2.928,7.07h12.109A22.106,22.106,0,0,0,396.3,541.75l8.562,8.562A10,10,0,0,1,418.994,550.312Z" transform="translate(-227.371)"/><path class="a" d="M110.028,635.294a10,10,0,0,1,12.426,6.741l11.611-3.444a22.106,22.106,0,0,0-40.625-4.256l10.644,5.774A9.965,9.965,0,0,1,110.028,635.294Z" transform="translate(0 -65.684)"/><path class="b" d="M222.923,561.7a9.966,9.966,0,0,1-4.8-5.958L206.5,559.158a22.106,22.106,0,0,0,40.613,4.362l-10.628-5.8A10,10,0,0,1,222.923,561.7Z" transform="translate(-84.882 -15.368)"/></g></svg>