<svg width="60" height="42" viewBox="0 0 60 42" fill="none" xmlns="http://www.w3.org/2000/svg">
<g id="padrao-yellow-processos">
<g id="Group 1">
<path id="Vector" d="M21.6533 27.0393C20.8321 27.8501 19.8571 28.4933 18.7839 28.9321C17.7107 29.371 16.5605 29.5968 15.3989 29.5968C14.2373 29.5968 13.087 29.371 12.0139 28.9321C10.9407 28.4933 9.96565 27.8501 9.14442 27.0393L1.56525 34.5196C4.30074 37.2194 7.78593 39.058 11.5802 39.803C15.3744 40.5479 19.3073 40.1656 22.8814 38.7046C26.4556 37.2435 29.5105 34.7692 31.6598 31.5946C33.8091 28.42 34.9564 24.6877 34.9565 20.8696H24.2417C24.243 22.0155 24.0151 23.1504 23.5709 24.2092C23.1267 25.2679 22.4751 26.2297 21.6533 27.0393V27.0393Z" fill="#E5D81F"/>
<path id="Vector_2" d="M44.6071 15.7389C45.4299 16.5488 46.0824 17.5112 46.5271 18.5707C46.9717 19.6303 47.1998 20.7662 47.1981 21.913H57.9131C57.9129 18.095 56.7657 14.3628 54.6164 11.1882C52.4671 8.01366 49.4122 5.53938 45.8381 4.07826C42.264 2.61714 38.3312 2.23479 34.537 2.97955C30.7427 3.72432 27.2574 5.56275 24.5218 8.26239L32.098 15.7396C33.7568 14.1026 36.0066 13.1829 38.3524 13.1828C40.6983 13.1826 42.9481 14.1021 44.6071 15.7389V15.7389Z" fill="#E5D81F"/>
</g>
</g>
</svg>
