<svg xmlns="http://www.w3.org/2000/svg" width="601" height="114.472" viewBox="0 0 601 114.472"><defs><style>.a{fill:#fff;}</style></defs><g transform="translate(-92.02 -375.169)"><path class="a" d="M1240.392,377.407v-.032h1.283Q1241.029,377.375,1240.392,377.407Z" transform="translate(-750.742 -1.442)"/><path class="a" d="M1605.524,626.894a13.886,13.886,0,0,1-19.64,0l-11.9,11.9a30.711,30.711,0,0,0,52.427-21.715h-16.823A13.844,13.844,0,0,1,1605.524,626.894Z" transform="translate(-968.829 -158.146)"/><path class="a" d="M1707.863,556.164a13.843,13.843,0,0,1,4.068,9.822h16.823a30.711,30.711,0,0,0-52.425-21.716l11.895,11.895A13.89,13.89,0,0,1,1707.863,556.164Z" transform="translate(-1035.733 -104.669)"/><path class="a" d="M1396.518,640.171a13.886,13.886,0,0,1,17.264,9.365l16.13-4.784a30.711,30.711,0,0,0-56.437-5.912l14.787,8.022A13.845,13.845,0,0,1,1396.518,640.171Z" transform="translate(-837.744 -161.865)"/><path class="a" d="M1509.348,564.022a13.845,13.845,0,0,1-6.671-8.277l-16.141,4.741a30.71,30.71,0,0,0,56.421,6.06l-14.765-8.06A13.89,13.89,0,0,1,1509.348,564.022Z" transform="translate(-911.658 -118.051)"/><path class="a" d="M1184.756,626.894a13.886,13.886,0,0,1-19.64,0l-11.9,11.9a30.711,30.711,0,0,0,52.427-21.715h-16.823A13.845,13.845,0,0,1,1184.756,626.894Z" transform="translate(-693.754 -158.146)"/><path class="a" d="M1279.971,556.164a13.843,13.843,0,0,1,4.067,9.822h16.823a30.711,30.711,0,0,0-52.426-21.716l11.895,11.895A13.89,13.89,0,0,1,1279.971,556.164Z" transform="translate(-756.001 -104.669)"/><path class="a" d="M968.626,640.171a13.886,13.886,0,0,1,17.264,9.365l16.13-4.784a30.711,30.711,0,0,0-56.437-5.912l14.787,8.022A13.844,13.844,0,0,1,968.626,640.171Z" transform="translate(-558.012 -161.865)"/><path class="a" d="M1081.456,564.022a13.845,13.845,0,0,1-6.671-8.277l-16.141,4.741a30.711,30.711,0,0,0,56.421,6.06l-14.765-8.06A13.89,13.89,0,0,1,1081.456,564.022Z" transform="translate(-631.926 -118.051)"/><path class="a" d="M1604.1,466.788a13.885,13.885,0,0,1-19.64,0l-11.9,11.9a30.711,30.711,0,0,0,52.427-21.715h-16.823A13.846,13.846,0,0,1,1604.1,466.788Z" transform="translate(-967.9 -53.477)"/><path class="a" d="M1706.442,396.058a13.844,13.844,0,0,1,4.068,9.822h16.823a30.711,30.711,0,0,0-52.426-21.716l11.895,11.895A13.889,13.889,0,0,1,1706.442,396.058Z" transform="translate(-1034.804)"/><path class="a" d="M1395.1,480.064a13.886,13.886,0,0,1,17.264,9.365l16.13-4.784a30.711,30.711,0,0,0-56.438-5.912l14.787,8.022A13.847,13.847,0,0,1,1395.1,480.064Z" transform="translate(-836.815 -57.196)"/><path class="a" d="M1507.927,403.915a13.844,13.844,0,0,1-6.671-8.277l-16.141,4.741a30.711,30.711,0,0,0,56.421,6.061l-14.765-8.06A13.889,13.889,0,0,1,1507.927,403.915Z" transform="translate(-910.729 -13.382)"/><path class="a" d="M1183.335,466.788a13.886,13.886,0,0,1-19.64,0l-11.9,11.9a30.711,30.711,0,0,0,52.427-21.715H1187.4A13.845,13.845,0,0,1,1183.335,466.788Z" transform="translate(-692.825 -53.477)"/><path class="a" d="M1278.55,396.058a13.842,13.842,0,0,1,4.068,9.822h16.823a30.711,30.711,0,0,0-52.425-21.716l11.895,11.895A13.889,13.889,0,0,1,1278.55,396.058Z" transform="translate(-755.072)"/><path class="a" d="M967.205,480.064a13.886,13.886,0,0,1,17.264,9.365l16.13-4.784a30.711,30.711,0,0,0-56.438-5.912l14.787,8.022A13.845,13.845,0,0,1,967.205,480.064Z" transform="translate(-557.083 -57.196)"/><path class="a" d="M1080.035,403.915a13.843,13.843,0,0,1-6.671-8.277l-16.141,4.741a30.711,30.711,0,0,0,56.421,6.061l-14.765-8.06A13.889,13.889,0,0,1,1080.035,403.915Z" transform="translate(-630.997 -13.382)"/><path class="a" d="M763.357,621.2a13.886,13.886,0,0,1-19.64,0l-11.9,11.9a30.71,30.71,0,0,0,52.427-21.715H767.424A13.845,13.845,0,0,1,763.357,621.2Z" transform="translate(-418.266 -154.42)"/><path class="a" d="M855.721,556.164a13.844,13.844,0,0,1,4.068,9.822h16.823a30.711,30.711,0,0,0-52.425-21.716l11.895,11.895A13.889,13.889,0,0,1,855.721,556.164Z" transform="translate(-478.651 -104.669)"/><path class="a" d="M544.377,640.171a13.886,13.886,0,0,1,17.264,9.365l16.13-4.784a30.711,30.711,0,0,0-56.437-5.912l14.787,8.022A13.844,13.844,0,0,1,544.377,640.171Z" transform="translate(-280.661 -161.865)"/><path class="a" d="M657.207,564.022a13.845,13.845,0,0,1-6.671-8.277L634.4,560.486a30.71,30.71,0,0,0,56.421,6.06l-14.765-8.06A13.89,13.89,0,0,1,657.207,564.022Z" transform="translate(-354.575 -118.051)"/><path class="a" d="M325.491,626.894a13.886,13.886,0,0,1-19.64,0l-11.9,11.9a30.711,30.711,0,0,0,52.427-21.715H329.558A13.845,13.845,0,0,1,325.491,626.894Z" transform="translate(-132.013 -158.146)"/><path class="a" d="M427.829,556.164a13.845,13.845,0,0,1,4.068,9.822H448.72A30.711,30.711,0,0,0,396.3,544.27l11.894,11.895A13.89,13.89,0,0,1,427.829,556.164Z" transform="translate(-198.918 -104.669)"/><path class="a" d="M116.485,640.171a13.886,13.886,0,0,1,17.263,9.365l16.13-4.784A30.711,30.711,0,0,0,93.44,638.84l14.788,8.022A13.844,13.844,0,0,1,116.485,640.171Z" transform="translate(-0.928 -161.865)"/><path class="a" d="M229.314,564.022a13.845,13.845,0,0,1-6.671-8.277L206.5,560.486a30.711,30.711,0,0,0,56.421,6.06l-14.765-8.06A13.89,13.89,0,0,1,229.314,564.022Z" transform="translate(-74.842 -118.051)"/><path class="a" d="M751.962,466.788a13.885,13.885,0,0,1-19.64,0l-11.9,11.9a30.711,30.711,0,0,0,52.428-21.715H756.029A13.844,13.844,0,0,1,751.962,466.788Z" transform="translate(-410.817 -53.477)"/><path class="a" d="M854.3,396.058a13.842,13.842,0,0,1,4.067,9.822h16.823a30.711,30.711,0,0,0-52.425-21.716l11.895,11.895A13.889,13.889,0,0,1,854.3,396.058Z" transform="translate(-477.722)"/><path class="a" d="M542.956,480.064a13.886,13.886,0,0,1,17.264,9.365l16.13-4.784a30.711,30.711,0,0,0-56.437-5.912l14.787,8.022A13.844,13.844,0,0,1,542.956,480.064Z" transform="translate(-279.732 -57.196)"/><path class="a" d="M655.786,403.915a13.842,13.842,0,0,1-6.671-8.277l-16.141,4.741a30.711,30.711,0,0,0,56.421,6.061l-14.765-8.06A13.889,13.889,0,0,1,655.786,403.915Z" transform="translate(-353.646 -13.382)"/><path class="a" d="M324.07,466.788a13.885,13.885,0,0,1-19.64,0l-11.9,11.9A30.711,30.711,0,0,0,344.96,456.97H328.137A13.843,13.843,0,0,1,324.07,466.788Z" transform="translate(-131.084 -53.477)"/><path class="a" d="M426.408,396.058a13.844,13.844,0,0,1,4.068,9.822H447.3a30.711,30.711,0,0,0-52.425-21.716l11.895,11.895A13.889,13.889,0,0,1,426.408,396.058Z" transform="translate(-197.989)"/><path class="a" d="M115.064,480.064a13.886,13.886,0,0,1,17.264,9.365l16.13-4.784a30.711,30.711,0,0,0-56.437-5.912l14.787,8.022A13.844,13.844,0,0,1,115.064,480.064Z" transform="translate(0 -57.196)"/><path class="a" d="M227.894,403.915a13.844,13.844,0,0,1-6.671-8.277l-16.141,4.741A30.711,30.711,0,0,0,261.5,406.44l-14.765-8.06A13.89,13.89,0,0,1,227.894,403.915Z" transform="translate(-73.914 -13.382)"/></g></svg>